REM DIRINDEX 1\2,1\3,1\4,1\5
REM DIRNAME "folder01","folder02","folder03","folder04","folder05"
TITLE ""
FILE "1Q_t_0069-0078.mp3" MP3
  TRACK 01 AUDIO
    TITLE "3:cjc172_1115"
    INDEX 01 00:00:00
  TRACK 02 AUDIO
    TITLE "0:"
    INDEX 01 00:01:27
  TRACK 03 AUDIO
    TITLE "4:cjc172_1116"
    INDEX 01 00:01:45
  TRACK 04 AUDIO
    TITLE "0:"
    INDEX 01 00:03:46
  TRACK 05 AUDIO
    TITLE "5:cjc172_1117"
    INDEX 01 00:03:60
  TRACK 06 AUDIO
    TITLE "0:"
    INDEX 01 00:08:69
  TRACK 07 AUDIO
    TITLE "3:cjc172_1118"
    INDEX 01 00:09:46
  TRACK 08 AUDIO
    TITLE "0:"
    INDEX 01 00:10:48
  TRACK 09 AUDIO
    TITLE "4:cjc172_1119"
    INDEX 01 00:10:66
  TRACK 10 AUDIO
    TITLE "0:"
    INDEX 01 00:12:70
  TRACK 11 AUDIO
    TITLE "5:cjc172_1120"
    INDEX 01 00:13:09
  TRACK 12 AUDIO
    TITLE "0:"
    INDEX 01 00:17:38
  TRACK 13 AUDIO
    TITLE "3:cjc172_1121"
    INDEX 01 00:18:18
  TRACK 14 AUDIO
    TITLE "0:"
    INDEX 01 00:19:25
  TRACK 15 AUDIO
    TITLE "4:cjc172_1122"
    INDEX 01 00:19:41
  TRACK 16 AUDIO
    TITLE "0:"
    INDEX 01 00:22:28
  TRACK 17 AUDIO
    TITLE "5:cjc172_1123"
    INDEX 01 00:22:41
  TRACK 18 AUDIO
    TITLE "0:"
    INDEX 01 00:26:21
  TRACK 19 AUDIO
    TITLE "3:cjc172_1124"
    INDEX 01 00:27:03
  TRACK 20 AUDIO
    TITLE "0:"
    INDEX 01 00:28:13
  TRACK 21 AUDIO
    TITLE "4:cjc172_1125"
    INDEX 01 00:28:26
  TRACK 22 AUDIO
    TITLE "0:"
    INDEX 01 00:30:51
  TRACK 23 AUDIO
    TITLE "5:cjc172_1126"
    INDEX 01 00:30:64
  TRACK 24 AUDIO
    TITLE "0:"
    INDEX 01 00:37:33
  TRACK 25 AUDIO
    TITLE "3:cjc172_1127"
    INDEX 01 00:38:13
  TRACK 26 AUDIO
    TITLE "0:"
    INDEX 01 00:39:26
  TRACK 27 AUDIO
    TITLE "4:cjc172_1128"
    INDEX 01 00:39:42
  TRACK 28 AUDIO
    TITLE "0:"
    INDEX 01 00:42:60
  TRACK 29 AUDIO
    TITLE "5:cjc172_1129"
    INDEX 01 00:42:75
  TRACK 30 AUDIO
    TITLE "0:"
    INDEX 01 00:51:23
  TRACK 31 AUDIO
    TITLE "3:cjc172_1130"
    INDEX 01 00:52:03
  TRACK 32 AUDIO
    TITLE "0:"
    INDEX 01 00:53:09
  TRACK 33 AUDIO
    TITLE "4:cjc172_1131"
    INDEX 01 00:53:26
  TRACK 34 AUDIO
    TITLE "0:"
    INDEX 01 00:54:43
  TRACK 35 AUDIO
    TITLE "5:cjc172_1132"
    INDEX 01 00:54:59
  TRACK 36 AUDIO
    TITLE "0:"
    INDEX 01 01:00:54
  TRACK 37 AUDIO
    TITLE "3:cjc172_1133"
    INDEX 01 01:01:30
  TRACK 38 AUDIO
    TITLE "0:"
    INDEX 01 01:02:54
  TRACK 39 AUDIO
    TITLE "4:cjc172_1134"
    INDEX 01 01:02:68
  TRACK 40 AUDIO
    TITLE "0:"
    INDEX 01 01:05:29
  TRACK 41 AUDIO
    TITLE "5:cjc172_1135"
    INDEX 01 01:05:45
  TRACK 42 AUDIO
    TITLE "0:"
    INDEX 01 01:13:03
  TRACK 43 AUDIO
    TITLE "3:cjc172_1136"
    INDEX 01 01:13:58
  TRACK 44 AUDIO
    TITLE "0:"
    INDEX 01 01:14:71
  TRACK 45 AUDIO
    TITLE "4:cjc172_1137"
    INDEX 01 01:15:12
  TRACK 46 AUDIO
    TITLE "0:"
    INDEX 01 01:16:33
  TRACK 47 AUDIO
    TITLE "5:cjc172_1138"
    INDEX 01 01:16:47
  TRACK 48 AUDIO
    TITLE "0:"
    INDEX 01 01:23:70
  TRACK 49 AUDIO
    TITLE "3:cjc172_1139"
    INDEX 01 01:24:48
  TRACK 50 AUDIO
    TITLE "0:"
    INDEX 01 01:25:52
  TRACK 51 AUDIO
    TITLE "4:cjc172_1140"
    INDEX 01 01:26:02
  TRACK 52 AUDIO
    TITLE "0:"
    INDEX 01 01:27:29
  TRACK 53 AUDIO
    TITLE "5:cjc172_1141"
    INDEX 01 01:27:45
  TRACK 54 AUDIO
    TITLE "0:"
    INDEX 01 01:35:54
  TRACK 55 AUDIO
    TITLE "3:cjc172_1142"
    INDEX 01 01:36:32
  TRACK 56 AUDIO
    TITLE "0:"
    INDEX 01 01:37:43
  TRACK 57 AUDIO
    TITLE "4:cjc172_1143"
    INDEX 01 01:37:59
  TRACK 58 AUDIO
    TITLE "0:"
    INDEX 01 01:41:41
  TRACK 59 AUDIO
    TITLE "5:cjc172_1144"
    INDEX 01 01:41:55
  TRACK 60 AUDIO
    TITLE "0:"
    INDEX 01 01:48:70
